<?xml version="1.0" encoding="UTF-8" standalone="no"?>
<!DOCTYPE svg PUBLIC "-//W3C//DTD SVG 1.1//EN"
 "http://www.w3.org/Graphics/SVG/1.1/DTD/svg11.dtd">
<!-- Generated by graphviz version 2.40.1 (20161225.0304)
 -->
<!-- Title: dependencies Pages: 1 -->
<svg width="2822pt" height="284pt"
 viewBox="0.00 0.00 2822.00 284.00" xmlns="http://www.w3.org/2000/svg" xmlns:xlink="http://www.w3.org/1999/xlink">
<g id="graph0" class="graph" transform="scale(1 1) rotate(0) translate(4 280)">
<title>dependencies</title>
<polygon fill="#ffffff" stroke="transparent" points="-4,4 -4,-280 2818,-280 2818,4 -4,4"/>
<text text-anchor="start" x="1386.0091" y="-42.4" font-family="sans-serif" font-weight="bold" font-size="14.00" fill="#000000">Legend</text>
<polygon fill="#ffffb3" stroke="transparent" points="1173,-10 1173,-30 1193,-30 1193,-10 1173,-10"/>
<text text-anchor="start" x="1196.629" y="-15.4" font-family="sans-serif" font-size="14.00" fill="#000000"> &#160;Declarations</text>
<polygon fill="#8dd3c7" stroke="transparent" points="1286,-10 1286,-30 1306,-30 1306,-10 1286,-10"/>
<text text-anchor="start" x="1309.7251" y="-15.4" font-family="sans-serif" font-size="14.00" fill="#000000"> &#160;Module</text>
<polygon fill="#80b1d3" stroke="transparent" points="1372,-10 1372,-30 1392,-30 1392,-10 1372,-10"/>
<text text-anchor="start" x="1395.7812" y="-15.4" font-family="sans-serif" font-size="14.00" fill="#000000"> &#160;Bootstrap</text>
<polygon fill="#fdb462" stroke="transparent" points="1469,-10 1469,-30 1489,-30 1489,-10 1469,-10"/>
<text text-anchor="start" x="1492.6732" y="-15.4" font-family="sans-serif" font-size="14.00" fill="#000000"> &#160;Providers</text>
<polygon fill="#fb8072" stroke="transparent" points="1565,-10 1565,-30 1585,-30 1585,-10 1565,-10"/>
<text text-anchor="start" x="1588.7258" y="-15.4" font-family="sans-serif" font-size="14.00" fill="#000000"> &#160;Exports</text>
<g id="clust1" class="cluster">
<title>cluster_AppModule</title>
<polygon fill="none" stroke="#000000" stroke-dasharray="1,5" points="8,-70 8,-268 2806,-268 2806,-70 8,-70"/>
</g>
<g id="clust2" class="cluster">
<title>cluster_AppModule_declarations</title>
<polygon fill="none" stroke="#000000" points="1321,-78 1321,-130 2798,-130 2798,-78 1321,-78"/>
</g>
<g id="clust12" class="cluster">
<title>cluster_AppModule_imports</title>
<polygon fill="none" stroke="#000000" points="1169,-78 1169,-130 1313,-130 1313,-78 1169,-78"/>
</g>
<g id="clust14" class="cluster">
<title>cluster_AppModule_bootstrap</title>
<polygon fill="none" stroke="#000000" points="1261,-208 1261,-260 1385,-260 1385,-208 1261,-208"/>
</g>
<g id="clust15" class="cluster">
<title>cluster_AppModule_providers</title>
<polygon fill="none" stroke="#000000" points="16,-78 16,-130 1161,-130 1161,-78 16,-78"/>
</g>
<!-- AppComponent -->
<g id="node1" class="node">
<title>AppComponent</title>
<polygon fill="#ffffb3" stroke="#000000" points="2789.9399,-122 2684.0601,-122 2684.0601,-86 2789.9399,-86 2789.9399,-122"/>
<text text-anchor="middle" x="2737" y="-99.8" font-family="Times,serif" font-size="14.00" fill="#000000">AppComponent</text>
</g>
<!-- AppModule -->
<g id="node10" class="node">
<title>AppModule</title>
<polygon fill="#8dd3c7" stroke="#000000" points="1364.6571,-187 1361.6571,-191 1340.6571,-191 1337.6571,-187 1281.3429,-187 1281.3429,-151 1364.6571,-151 1364.6571,-187"/>
<text text-anchor="middle" x="1323" y="-164.8" font-family="Times,serif" font-size="14.00" fill="#000000">AppModule</text>
</g>
<!-- AppComponent&#45;&gt;AppModule -->
<g id="edge1" class="edge">
<title>AppComponent&#45;&gt;AppModule</title>
<path fill="none" stroke="#000000" d="M2737,-122.3228C2737,-145.6602 2737,-183 2737,-183 2737,-183 1374.9346,-183 1374.9346,-183"/>
<polygon fill="#000000" stroke="#000000" points="1374.9346,-179.5001 1364.9346,-183 1374.9345,-186.5001 1374.9346,-179.5001"/>
</g>
<!-- WelcomePageComponent -->
<g id="node2" class="node">
<title>WelcomePageComponent</title>
<polygon fill="#ffffb3" stroke="#000000" points="2666.1839,-122 2503.8161,-122 2503.8161,-86 2666.1839,-86 2666.1839,-122"/>
<text text-anchor="middle" x="2585" y="-99.8" font-family="Times,serif" font-size="14.00" fill="#000000">WelcomePageComponent</text>
</g>
<!-- WelcomePageComponent&#45;&gt;AppModule -->
<g id="edge2" class="edge">
<title>WelcomePageComponent&#45;&gt;AppModule</title>
<path fill="none" stroke="#000000" d="M2585,-122.1554C2585,-144.3519 2585,-179 2585,-179 2585,-179 1374.989,-179 1374.989,-179"/>
<polygon fill="#000000" stroke="#000000" points="1374.989,-175.5001 1364.989,-179 1374.989,-182.5001 1374.989,-175.5001"/>
</g>
<!-- SignInComponent -->
<g id="node3" class="node">
<title>SignInComponent</title>
<polygon fill="#ffffb3" stroke="#000000" points="2486.1667,-122 2367.8333,-122 2367.8333,-86 2486.1667,-86 2486.1667,-122"/>
<text text-anchor="middle" x="2427" y="-99.8" font-family="Times,serif" font-size="14.00" fill="#000000">SignInComponent</text>
</g>
<!-- SignInComponent&#45;&gt;AppModule -->
<g id="edge3" class="edge">
<title>SignInComponent&#45;&gt;AppModule</title>
<path fill="none" stroke="#000000" d="M2427,-122.2843C2427,-143.3211 2427,-175 2427,-175 2427,-175 1374.93,-175 1374.93,-175"/>
<polygon fill="#000000" stroke="#000000" points="1374.93,-171.5001 1364.93,-175 1374.93,-178.5001 1374.93,-171.5001"/>
</g>
<!-- SignUpComponent -->
<g id="node4" class="node">
<title>SignUpComponent</title>
<polygon fill="#ffffb3" stroke="#000000" points="2350.1123,-122 2225.8877,-122 2225.8877,-86 2350.1123,-86 2350.1123,-122"/>
<text text-anchor="middle" x="2288" y="-99.8" font-family="Times,serif" font-size="14.00" fill="#000000">SignUpComponent</text>
</g>
<!-- SignUpComponent&#45;&gt;AppModule -->
<g id="edge4" class="edge">
<title>SignUpComponent&#45;&gt;AppModule</title>
<path fill="none" stroke="#000000" d="M2288,-122.308C2288,-142.1455 2288,-171 2288,-171 2288,-171 1374.7746,-171 1374.7746,-171"/>
<polygon fill="#000000" stroke="#000000" points="1374.7746,-167.5001 1364.7746,-171 1374.7745,-174.5001 1374.7746,-167.5001"/>
</g>
<!-- DashboardPageComponent -->
<g id="node5" class="node">
<title>DashboardPageComponent</title>
<polygon fill="#ffffb3" stroke="#000000" points="2207.6853,-122 2038.3147,-122 2038.3147,-86 2207.6853,-86 2207.6853,-122"/>
<text text-anchor="middle" x="2123" y="-99.8" font-family="Times,serif" font-size="14.00" fill="#000000">DashboardPageComponent</text>
</g>
<!-- DashboardPageComponent&#45;&gt;AppModule -->
<g id="edge5" class="edge">
<title>DashboardPageComponent&#45;&gt;AppModule</title>
<path fill="none" stroke="#000000" d="M2123,-122.2222C2123,-140.8285 2123,-167 2123,-167 2123,-167 1374.8851,-167 1374.8851,-167"/>
<polygon fill="#000000" stroke="#000000" points="1374.8851,-163.5001 1364.8851,-167 1374.8851,-170.5001 1374.8851,-163.5001"/>
</g>
<!-- PreferredShopsComponent -->
<g id="node6" class="node">
<title>PreferredShopsComponent</title>
<polygon fill="#ffffb3" stroke="#000000" points="2020.6288,-122 1853.3712,-122 1853.3712,-86 2020.6288,-86 2020.6288,-122"/>
<text text-anchor="middle" x="1937" y="-99.8" font-family="Times,serif" font-size="14.00" fill="#000000">PreferredShopsComponent</text>
</g>
<!-- PreferredShopsComponent&#45;&gt;AppModule -->
<g id="edge6" class="edge">
<title>PreferredShopsComponent&#45;&gt;AppModule</title>
<path fill="none" stroke="#000000" d="M1937,-122.0225C1937,-139.3734 1937,-163 1937,-163 1937,-163 1374.72,-163 1374.72,-163"/>
<polygon fill="#000000" stroke="#000000" points="1374.72,-159.5001 1364.72,-163 1374.72,-166.5001 1374.72,-159.5001"/>
</g>
<!-- PreferredShopComponent -->
<g id="node7" class="node">
<title>PreferredShopComponent</title>
<polygon fill="#ffffb3" stroke="#000000" points="1835.1839,-122 1672.8161,-122 1672.8161,-86 1835.1839,-86 1835.1839,-122"/>
<text text-anchor="middle" x="1754" y="-99.8" font-family="Times,serif" font-size="14.00" fill="#000000">PreferredShopComponent</text>
</g>
<!-- PreferredShopComponent&#45;&gt;AppModule -->
<g id="edge7" class="edge">
<title>PreferredShopComponent&#45;&gt;AppModule</title>
<path fill="none" stroke="#000000" d="M1754,-122.0091C1754,-138.0494 1754,-159 1754,-159 1754,-159 1374.7177,-159 1374.7177,-159"/>
<polygon fill="#000000" stroke="#000000" points="1374.7177,-155.5001 1364.7177,-159 1374.7177,-162.5001 1374.7177,-155.5001"/>
</g>
<!-- NearbyShopsComponent -->
<g id="node8" class="node">
<title>NearbyShopsComponent</title>
<polygon fill="#ffffb3" stroke="#000000" points="1655.2562,-122 1498.7438,-122 1498.7438,-86 1655.2562,-86 1655.2562,-122"/>
<text text-anchor="middle" x="1577" y="-99.8" font-family="Times,serif" font-size="14.00" fill="#000000">NearbyShopsComponent</text>
</g>
<!-- NearbyShopsComponent&#45;&gt;AppModule -->
<g id="edge8" class="edge">
<title>NearbyShopsComponent&#45;&gt;AppModule</title>
<path fill="none" stroke="#000000" d="M1577,-122.1243C1577,-136.7832 1577,-155 1577,-155 1577,-155 1374.6585,-155 1374.6585,-155"/>
<polygon fill="#000000" stroke="#000000" points="1374.6585,-151.5001 1364.6585,-155 1374.6585,-158.5001 1374.6585,-151.5001"/>
</g>
<!-- NearbyShopComponent -->
<g id="node9" class="node">
<title>NearbyShopComponent</title>
<polygon fill="#ffffb3" stroke="#000000" points="1480.8117,-122 1329.1883,-122 1329.1883,-86 1480.8117,-86 1480.8117,-122"/>
<text text-anchor="middle" x="1405" y="-99.8" font-family="Times,serif" font-size="14.00" fill="#000000">NearbyShopComponent</text>
</g>
<!-- NearbyShopComponent&#45;&gt;AppModule -->
<g id="edge9" class="edge">
<title>NearbyShopComponent&#45;&gt;AppModule</title>
<path fill="none" stroke="#000000" d="M1347.0862,-122.1061C1347.0862,-122.1061 1347.0862,-140.991 1347.0862,-140.991"/>
<polygon fill="#000000" stroke="#000000" points="1343.5863,-140.9909 1347.0862,-150.991 1350.5863,-140.991 1343.5863,-140.9909"/>
</g>
<!-- AppComponent  -->
<g id="node12" class="node">
<title>AppComponent </title>
<polygon fill="#80b1d3" stroke="#000000" points="1377.439,-252 1268.561,-252 1268.561,-216 1377.439,-216 1377.439,-252"/>
<text text-anchor="middle" x="1323" y="-229.8" font-family="Times,serif" font-size="14.00" fill="#000000">AppComponent </text>
</g>
<!-- AppModule&#45;&gt;AppComponent  -->
<g id="edge11" class="edge">
<title>AppModule&#45;&gt;AppComponent </title>
<path fill="none" stroke="#000000" stroke-dasharray="1,5" d="M1323,-187.1061C1323,-187.1061 1323,-205.991 1323,-205.991"/>
<polygon fill="#000000" stroke="#000000" points="1319.5001,-205.9909 1323,-215.991 1326.5001,-205.991 1319.5001,-205.9909"/>
</g>
<!-- AppRoutingModule -->
<g id="node11" class="node">
<title>AppRoutingModule</title>
<polygon fill="#8dd3c7" stroke="#000000" points="1305.2744,-122 1302.2744,-126 1281.2744,-126 1278.2744,-122 1176.7256,-122 1176.7256,-86 1305.2744,-86 1305.2744,-122"/>
<text text-anchor="middle" x="1241" y="-99.8" font-family="Times,serif" font-size="14.00" fill="#000000">AppRoutingModule</text>
</g>
<!-- AppRoutingModule&#45;&gt;AppModule -->
<g id="edge10" class="edge">
<title>AppRoutingModule&#45;&gt;AppModule</title>
<path fill="none" stroke="#000000" d="M1293.2795,-122.1061C1293.2795,-122.1061 1293.2795,-140.991 1293.2795,-140.991"/>
<polygon fill="#000000" stroke="#000000" points="1289.7795,-140.9909 1293.2795,-150.991 1296.7795,-140.991 1289.7795,-140.9909"/>
</g>
<!-- SessionService -->
<g id="node13" class="node">
<title>SessionService</title>
<ellipse fill="#fdb462" stroke="#000000" cx="1084" cy="-104" rx="69.4974" ry="18"/>
<text text-anchor="middle" x="1084" y="-99.8" font-family="Times,serif" font-size="14.00" fill="#000000">SessionService</text>
</g>
<!-- SessionService&#45;&gt;AppModule -->
<g id="edge12" class="edge">
<title>SessionService&#45;&gt;AppModule</title>
<path fill="none" stroke="#000000" d="M1084,-122.1243C1084,-136.7832 1084,-155 1084,-155 1084,-155 1271.0959,-155 1271.0959,-155"/>
<polygon fill="#000000" stroke="#000000" points="1271.0959,-158.5001 1281.0959,-155 1271.0959,-151.5001 1271.0959,-158.5001"/>
</g>
<!-- ActionService -->
<g id="node14" class="node">
<title>ActionService</title>
<ellipse fill="#fdb462" stroke="#000000" cx="930" cy="-104" rx="66.0492" ry="18"/>
<text text-anchor="middle" x="930" y="-99.8" font-family="Times,serif" font-size="14.00" fill="#000000">ActionService</text>
</g>
<!-- ActionService&#45;&gt;AppModule -->
<g id="edge13" class="edge">
<title>ActionService&#45;&gt;AppModule</title>
<path fill="none" stroke="#000000" d="M930,-122.0091C930,-138.0494 930,-159 930,-159 930,-159 1271.3142,-159 1271.3142,-159"/>
<polygon fill="#000000" stroke="#000000" points="1271.3142,-162.5001 1281.3142,-159 1271.3141,-155.5001 1271.3142,-162.5001"/>
</g>
<!-- EntryService -->
<g id="node15" class="node">
<title>EntryService</title>
<ellipse fill="#fdb462" stroke="#000000" cx="784" cy="-104" rx="61.3935" ry="18"/>
<text text-anchor="middle" x="784" y="-99.8" font-family="Times,serif" font-size="14.00" fill="#000000">EntryService</text>
</g>
<!-- EntryService&#45;&gt;AppModule -->
<g id="edge14" class="edge">
<title>EntryService&#45;&gt;AppModule</title>
<path fill="none" stroke="#000000" d="M784,-122.0225C784,-139.3734 784,-163 784,-163 784,-163 1271.1541,-163 1271.1541,-163"/>
<polygon fill="#000000" stroke="#000000" points="1271.1541,-166.5001 1281.1541,-163 1271.154,-159.5001 1271.1541,-166.5001"/>
</g>
<!-- AppService -->
<g id="node16" class="node">
<title>AppService</title>
<ellipse fill="#fdb462" stroke="#000000" cx="648" cy="-104" rx="56.7406" ry="18"/>
<text text-anchor="middle" x="648" y="-99.8" font-family="Times,serif" font-size="14.00" fill="#000000">AppService</text>
</g>
<!-- AppService&#45;&gt;AppModule -->
<g id="edge15" class="edge">
<title>AppService&#45;&gt;AppModule</title>
<path fill="none" stroke="#000000" d="M648,-122.2222C648,-140.8285 648,-167 648,-167 648,-167 1271.2851,-167 1271.2851,-167"/>
<polygon fill="#000000" stroke="#000000" points="1271.2852,-170.5001 1281.2851,-167 1271.2851,-163.5001 1271.2852,-170.5001"/>
</g>
<!-- AuthGuard -->
<g id="node17" class="node">
<title>AuthGuard</title>
<ellipse fill="#fdb462" stroke="#000000" cx="519" cy="-104" rx="54.4566" ry="18"/>
<text text-anchor="middle" x="519" y="-99.8" font-family="Times,serif" font-size="14.00" fill="#000000">AuthGuard</text>
</g>
<!-- AuthGuard&#45;&gt;AppModule -->
<g id="edge16" class="edge">
<title>AuthGuard&#45;&gt;AppModule</title>
<path fill="none" stroke="#000000" d="M519,-122.308C519,-142.1455 519,-171 519,-171 519,-171 1271.1864,-171 1271.1864,-171"/>
<polygon fill="#000000" stroke="#000000" points="1271.1864,-174.5001 1281.1864,-171 1271.1864,-167.5001 1271.1864,-174.5001"/>
</g>
<!-- SharedService -->
<g id="node18" class="node">
<title>SharedService</title>
<ellipse fill="#fdb462" stroke="#000000" cx="380" cy="-104" rx="66.6113" ry="18"/>
<text text-anchor="middle" x="380" y="-99.8" font-family="Times,serif" font-size="14.00" fill="#000000">SharedService</text>
</g>
<!-- SharedService&#45;&gt;AppModule -->
<g id="edge17" class="edge">
<title>SharedService&#45;&gt;AppModule</title>
<path fill="none" stroke="#000000" d="M380,-122.2843C380,-143.3211 380,-175 380,-175 380,-175 1271.2637,-175 1271.2637,-175"/>
<polygon fill="#000000" stroke="#000000" points="1271.2637,-178.5001 1281.2637,-175 1271.2637,-171.5001 1271.2637,-178.5001"/>
</g>
<!-- FctService -->
<g id="node19" class="node">
<title>FctService</title>
<ellipse fill="#fdb462" stroke="#000000" cx="243" cy="-104" rx="52.1617" ry="18"/>
<text text-anchor="middle" x="243" y="-99.8" font-family="Times,serif" font-size="14.00" fill="#000000">FctService</text>
</g>
<!-- FctService&#45;&gt;AppModule -->
<g id="edge18" class="edge">
<title>FctService&#45;&gt;AppModule</title>
<path fill="none" stroke="#000000" d="M243,-122.1554C243,-144.3519 243,-179 243,-179 243,-179 1271.3245,-179 1271.3245,-179"/>
<polygon fill="#000000" stroke="#000000" points="1271.3245,-182.5001 1281.3245,-179 1271.3244,-175.5001 1271.3245,-182.5001"/>
</g>
<!-- LocationService -->
<g id="node20" class="node">
<title>LocationService</title>
<ellipse fill="#fdb462" stroke="#000000" cx="98" cy="-104" rx="74.1354" ry="18"/>
<text text-anchor="middle" x="98" y="-99.8" font-family="Times,serif" font-size="14.00" fill="#000000">LocationService</text>
</g>
<!-- LocationService&#45;&gt;AppModule -->
<g id="edge19" class="edge">
<title>LocationService&#45;&gt;AppModule</title>
<path fill="none" stroke="#000000" d="M98,-122.3228C98,-145.6602 98,-183 98,-183 98,-183 1271.1871,-183 1271.1871,-183"/>
<polygon fill="#000000" stroke="#000000" points="1271.1871,-186.5001 1281.1871,-183 1271.1871,-179.5001 1271.1871,-186.5001"/>
</g>
</g>
</svg>
